<svg width="24" height="24" viewBox="0 0 24 24" fill="none" xmlns="http://www.w3.org/2000/svg">
<g id="Icons/Facebook/Line">
<path id="Vector" fill-rule="evenodd" clip-rule="evenodd" d="M12 20.0009C16.4183 20.0009 20 16.4192 20 12.0009C20 7.58257 16.4183 4.00085 12 4.00085C7.58172 4.00085 4 7.58257 4 12.0009C4 16.4192 7.58172 20.0009 12 20.0009ZM12 22.0009C17.5228 22.0009 22 17.5237 22 12.0009C22 6.478 17.5228 2.00085 12 2.00085C6.47715 2.00085 2 6.478 2 12.0009C2 17.5237 6.47715 22.0009 12 22.0009Z" fill="#777E91"/>
<path id="Vector_2" d="M12 10.0009C12 9.44857 12.4477 9.00085 13 9.00085H14C14.5523 9.00085 15 8.55314 15 8.00085C15 7.44857 14.5523 7.00085 14 7.00085H13C11.3431 7.00085 10 8.344 10 10.0009V12.0009H9C8.44772 12.0009 8 12.4486 8 13.0009C8 13.5532 8.44771 14.0009 9 14.0009H10V20.0009C10 20.5532 10.4477 21.0009 11 21.0009C11.5523 21.0009 12 20.5532 12 20.0009V14.0009H14C14.5523 14.0009 15 13.5532 15 13.0009C15 12.4486 14.5523 12.0009 14 12.0009H12V10.0009Z" fill="#777E91"/>
</g>
</svg>
