<svg width="24" height="24" viewBox="0 0 24 24" fill="none" xmlns="http://www.w3.org/2000/svg">
<g id="Icons/Instagram/Line">
<path id="Vector" fill-rule="evenodd" clip-rule="evenodd" d="M16 4.00085H8C5.79086 4.00085 4 5.79171 4 8.00085V16.0009C4 18.21 5.79086 20.0009 8 20.0009H16C18.2091 20.0009 20 18.21 20 16.0009V8.00085C20 5.79171 18.2091 4.00085 16 4.00085ZM8 2.00085C4.68629 2.00085 2 4.68714 2 8.00085V16.0009C2 19.3146 4.68629 22.0009 8 22.0009H16C19.3137 22.0009 22 19.3146 22 16.0009V8.00085C22 4.68714 19.3137 2.00085 16 2.00085H8Z" fill="#777E91"/>
<path id="Vector_2" d="M17 8.00085C17.5523 8.00085 18 7.55313 18 7.00085C18 6.44857 17.5523 6.00085 17 6.00085C16.4477 6.00085 16 6.44857 16 7.00085C16 7.55313 16.4477 8.00085 17 8.00085Z" fill="#777E91"/>
<path id="Vector_3" fill-rule="evenodd" clip-rule="evenodd" d="M17 12.0009C17 14.7623 14.7614 17.0009 12 17.0009C9.23858 17.0009 7 14.7623 7 12.0009C7 9.23943 9.23858 7.00085 12 7.00085C14.7614 7.00085 17 9.23943 17 12.0009ZM15 12.0009C15 13.6578 13.6569 15.0009 12 15.0009C10.3431 15.0009 9 13.6578 9 12.0009C9 10.344 10.3431 9.00085 12 9.00085C13.6569 9.00085 15 10.344 15 12.0009Z" fill="#777E91"/>
</g>
</svg>
