<svg width="24" height="24" viewBox="0 0 24 24" fill="none" xmlns="http://www.w3.org/2000/svg">
<g id="Icons/Twitter/Line">
<path id="Vector" fill-rule="evenodd" clip-rule="evenodd" d="M3.17904 14.0007C1.52532 14.0054 0.457804 15.8893 1.4766 17.3166C2.93562 19.3605 5.58137 21.0009 9.99839 21.0009C16.8435 21.0009 22.3381 15.4226 21.5689 8.83195L22.6958 6.57815C23.4773 5.01513 22.1193 3.23707 20.4057 3.57979L18.9169 3.87754C18.5222 3.66928 18.1137 3.51212 17.7646 3.39826C17.0842 3.17637 16.2607 3.00085 15.4984 3.00085C14.1291 3.00085 12.9473 3.35216 12.0081 4.05678C11.0796 4.75349 10.5566 5.6691 10.2696 6.5099C10.1373 6.89746 10.0492 7.28619 9.99266 7.65928C9.46139 7.49208 8.91968 7.26711 8.38934 6.9924C7.18614 6.36917 6.21319 5.57907 5.66434 4.88636C4.74351 3.72415 2.79207 3.81032 2.10729 5.32106C1.14215 7.45032 1.4069 9.97431 2.27444 12.0138C2.56522 12.6973 2.94347 13.373 3.40558 13.9992C3.32647 14.0001 3.25079 14.0005 3.17904 14.0007ZM9.99829 19.0009C6.13495 19.0009 4.13728 17.6016 3.10433 16.1546C3.05792 16.0896 3.10472 16.0009 3.18459 16.0007C4.23543 15.9977 6.39243 15.948 7.81503 15.1154C7.8886 15.0723 7.87241 14.9638 7.79161 14.9367C4.47544 13.8217 2.59041 9.09944 3.92879 6.14675C3.95948 6.07905 4.05048 6.07012 4.09665 6.12839C5.62552 8.05803 8.96832 9.94805 11.8767 9.99976C11.9398 10.0009 11.9875 9.94355 11.9779 9.88118C11.8607 9.12138 11.4132 5.00085 15.4983 5.00085C16.4738 5.00085 17.9252 5.47668 18.4598 5.96415C18.4845 5.98668 18.518 5.99691 18.5508 5.99035L20.7978 5.54095C20.8794 5.52463 20.9441 5.6093 20.9069 5.68373L19.5132 8.47104C19.5035 8.49039 19.5005 8.5126 19.5042 8.53391C20.4803 14.0209 15.9863 19.0009 9.99829 19.0009Z" fill="#777E91"/>
</g>
</svg>
