<svg width="20" height="20" viewBox="0 0 20 20" fill="none" xmlns="http://www.w3.org/2000/svg">
<g id="icons/Video/Line">
<path id="Shape" fill-rule="evenodd" clip-rule="evenodd" d="M10.0007 4.16667C7.93636 4.16667 6.1693 4.31417 4.82842 4.48178C3.74467 4.61725 2.92089 5.42836 2.76817 6.51294C2.6193 7.57015 2.50065 8.79509 2.50065 10C2.50065 11.2049 2.6193 12.4299 2.76817 13.4871C2.92089 14.5716 3.74467 15.3828 4.82842 15.5182C6.1693 15.6858 7.93636 15.8333 10.0007 15.8333C12.0649 15.8333 13.832 15.6858 15.1729 15.5182C16.2566 15.3828 17.0804 14.5716 17.2331 13.4871C17.382 12.4299 17.5006 11.2049 17.5006 10C17.5006 8.79509 17.382 7.57015 17.2331 6.51294C17.0804 5.42836 16.2566 4.61725 15.1729 4.48178C13.832 4.31417 12.0649 4.16667 10.0007 4.16667ZM4.6217 2.82798C2.78939 3.05702 1.37526 4.45203 1.11778 6.28055C0.962056 7.38648 0.833984 8.69324 0.833984 10C0.833984 11.3068 0.962056 12.6135 1.11778 13.7194C1.37526 15.548 2.7894 16.943 4.6217 17.172C6.02111 17.3469 7.85782 17.5 10.0007 17.5C12.1435 17.5 13.9802 17.3469 15.3796 17.172C17.2119 16.943 18.626 15.548 18.8835 13.7194C19.0392 12.6135 19.1673 11.3068 19.1673 10C19.1673 8.69324 19.0392 7.38648 18.8835 6.28055C18.626 4.45203 17.2119 3.05702 15.3796 2.82798C13.9802 2.65306 12.1435 2.5 10.0007 2.5C7.85782 2.5 6.02111 2.65306 4.6217 2.82798Z" fill="#777E91"/>
<path id="Shape_2" d="M8.77506 6.6302L13.0361 9.29333C13.5583 9.61971 13.5583 10.3803 13.0361 10.7067L8.77506 13.3698C8.22002 13.7167 7.50006 13.3176 7.50006 12.6631L7.50006 7.33686C7.50006 6.68233 8.22002 6.2833 8.77506 6.6302Z" fill="#777E91"/>
</g>
</svg>
