<svg width="24" height="24" viewBox="0 0 24 24" fill="none" xmlns="http://www.w3.org/2000/svg">
<g id="icons/Medal/Filled">
<path id="Shape" fill-rule="evenodd" clip-rule="evenodd" d="M12 24C16.4183 24 20 20.4183 20 16C20 11.5817 16.4183 8 12 8C7.58172 8 4 11.5817 4 16C4 20.4183 7.58172 24 12 24ZM12 21C14.7614 21 17 18.7614 17 16C17 13.2386 14.7614 11 12 11C9.23858 11 7 13.2386 7 16C7 18.7614 9.23858 21 12 21Z" fill="#FCFCFD"/>
<path id="Shape_2" d="M15 16C15 17.6569 13.6569 19 12 19C10.3431 19 9 17.6569 9 16C9 14.3431 10.3431 13 12 13C13.6569 13 15 14.3431 15 16Z" fill="#FCFCFD"/>
<path id="Shape_3" d="M16.582 7.11C16.8334 7.23989 17.1469 7.15277 17.2811 6.90363L20.2046 1.4741C20.5634 0.807868 20.0809 0 19.3242 0H15.592C15.2261 0 14.8894 0.199887 14.7141 0.521148L13.2681 3.17224C13.1867 3.32148 13.1867 3.50185 13.2681 3.65109L14.6598 6.20261C14.7239 6.32007 14.8325 6.40636 14.9603 6.44594C15.5238 6.62044 16.066 6.84342 16.582 7.11Z" fill="#FCFCFD"/>
<path id="Shape_4" d="M7.41556 7.11024C7.16404 7.23988 6.85054 7.15277 6.71639 6.90363L3.7928 1.4741C3.43406 0.807868 3.91659 0 4.67327 0H8.40542C8.77136 0 9.10808 0.199887 9.28332 0.521148L11.8578 5.24103C12.0424 5.57946 11.7902 5.99498 11.4054 6.01807C10.0176 6.10135 8.65247 6.47273 7.41556 7.11024Z" fill="#FCFCFD"/>
</g>
</svg>
