<svg width="48" height="49" viewBox="0 0 48 49" fill="none" xmlns="http://www.w3.org/2000/svg">
<g id="Icons/Weight/Line" clip-path="url(#clip0_2751_21709)">
<path id="Shape" fill-rule="evenodd" clip-rule="evenodd" d="M24 44.4004C31.732 44.4004 38 38.1324 38 30.4004C38 22.6684 31.732 16.4004 24 16.4004C16.268 16.4004 10 22.6684 10 30.4004C10 38.1324 16.268 44.4004 24 44.4004ZM24 48.4004C33.9411 48.4004 42 40.3415 42 30.4004C42 20.4593 33.9411 12.4004 24 12.4004C14.0589 12.4004 6 20.4593 6 30.4004C6 40.3415 14.0589 48.4004 24 48.4004Z" fill="#FCFCFD"/>
<path id="Shape_2" fill-rule="evenodd" clip-rule="evenodd" d="M17.7083 6.40039C14.7348 6.40039 12.8008 9.52964 14.1306 12.1892L15.789 15.506C16.2829 16.4939 15.8825 17.6953 14.8945 18.1892C13.9066 18.6832 12.7052 18.2828 12.2113 17.2948L10.5529 13.9781C7.8933 8.65889 11.7613 2.40039 17.7083 2.40039H30.2919C36.239 2.40039 40.1069 8.65889 37.4473 13.9781L35.789 17.2948C35.295 18.2828 34.0936 18.6832 33.1057 18.1892C32.1177 17.6953 31.7173 16.4939 32.2113 15.506L33.8696 12.1892C35.1994 9.52964 33.2654 6.40039 30.2919 6.40039H17.7083Z" fill="#FCFCFD"/>
</g>
<defs>
<clipPath id="clip0_2751_21709">
<rect width="48" height="48" fill="white" transform="translate(0 0.400391)"/>
</clipPath>
</defs>
</svg>
