<svg width="48" height="49" viewBox="0 0 48 49" fill="none" xmlns="http://www.w3.org/2000/svg">
<g id="icons/Baseball Ball/Line">
<path id="Shape" fill-rule="evenodd" clip-rule="evenodd" d="M24 40.4004C32.8366 40.4004 40 33.2369 40 24.4004C40 15.5638 32.8366 8.40039 24 8.40039C15.1634 8.40039 8 15.5638 8 24.4004C8 33.2369 15.1634 40.4004 24 40.4004ZM24 44.4004C35.0457 44.4004 44 35.4461 44 24.4004C44 13.3547 35.0457 4.40039 24 4.40039C12.9543 4.40039 4 13.3547 4 24.4004C4 35.4461 12.9543 44.4004 24 44.4004Z" fill="#FCFCFD"/>
<g id="Shape_2">
<path d="M12.0001 40.4014C16.8579 36.7525 20.0001 30.9432 20.0001 24.3999C20.0001 17.8566 16.8579 12.0473 12.0001 8.39844C10.9084 9.2185 9.90324 10.1477 9.00098 11.1698C13.226 14.0499 16.0001 18.9009 16.0001 24.3999C16.0001 29.8989 13.226 34.7499 9.00098 37.63C9.90325 38.6521 10.9084 39.5813 12.0001 40.4014Z" fill="#FCFCFD"/>
<path d="M36.0001 8.39844C31.1423 12.0473 28.0001 17.8566 28.0001 24.3999C28.0001 30.9432 31.1423 36.7525 36.0001 40.4014C37.0919 39.5813 38.097 38.6521 38.9993 37.63C34.7742 34.7499 32.0001 29.8989 32.0001 24.3999C32.0001 18.9009 34.7742 14.0499 38.9993 11.1698C38.097 10.1477 37.0919 9.21851 36.0001 8.39844Z" fill="#FCFCFD"/>
</g>
</g>
</svg>
