<svg width="48" height="49" viewBox="0 0 48 49" fill="none" xmlns="http://www.w3.org/2000/svg">
<g id="Icons/Stopwatch/Line">
<path id="Shape" fill-rule="evenodd" clip-rule="evenodd" d="M24 42.4004C31.732 42.4004 38 36.1324 38 28.4004C38 20.6684 31.732 14.4004 24 14.4004C16.268 14.4004 10 20.6684 10 28.4004C10 36.1324 16.268 42.4004 24 42.4004ZM24 46.4004C33.9411 46.4004 42 38.3415 42 28.4004C42 18.4593 33.9411 10.4004 24 10.4004C14.0589 10.4004 6 18.4593 6 28.4004C6 38.3415 14.0589 46.4004 24 46.4004Z" fill="#FCFCFD"/>
<path id="Shape_2" d="M22 20.4004C22 19.2958 22.8954 18.4004 24 18.4004C25.1046 18.4004 26 19.2958 26 20.4004V28.4004C26 29.505 25.1046 30.4004 24 30.4004C22.8954 30.4004 22 29.505 22 28.4004V20.4004Z" fill="#FCFCFD"/>
<g id="Shape_3">
<path d="M20 2.40039C18.8954 2.40039 18 3.29582 18 4.40039C18 5.50496 18.8954 6.40039 20 6.40039H28C29.1046 6.40039 30 5.50496 30 4.40039C30 3.29582 29.1046 2.40039 28 2.40039H20Z" fill="#FCFCFD"/>
<path d="M41.4142 8.98618C40.6332 8.20513 39.3668 8.20513 38.5858 8.98618C37.8047 9.76723 37.8047 11.0336 38.5858 11.8146L40.5858 13.8146C41.3668 14.5957 42.6332 14.5957 43.4142 13.8146C44.1953 13.0336 44.1953 11.7672 43.4142 10.9862L41.4142 8.98618Z" fill="#FCFCFD"/>
</g>
</g>
</svg>
