<svg width="24" height="24" viewBox="0 0 24 24" fill="none" xmlns="http://www.w3.org/2000/svg">
<g id="Icons/LinkedIn/Line">
<path id="Vector" fill-rule="evenodd" clip-rule="evenodd" d="M18 4.00085H6C4.89543 4.00085 4 4.89628 4 6.00085V18.0009C4 19.1055 4.89543 20.0009 6 20.0009H18C19.1046 20.0009 20 19.1055 20 18.0009V6.00085C20 4.89628 19.1046 4.00085 18 4.00085ZM6 2.00085C3.79086 2.00085 2 3.79171 2 6.00085V18.0009C2 20.21 3.79086 22.0009 6 22.0009H18C20.2091 22.0009 22 20.21 22 18.0009V6.00085C22 3.79171 20.2091 2.00085 18 2.00085H6Z" fill="#777E91"/>
<path id="Vector_2" d="M7 8.00085C7.55228 8.00085 8 7.55313 8 7.00085C8 6.44857 7.55228 6.00085 7 6.00085C6.44772 6.00085 6 6.44857 6 7.00085C6 7.55313 6.44772 8.00085 7 8.00085Z" fill="#777E91"/>
<path id="Vector_3" d="M7 10.0009C6.44772 10.0009 6 10.4486 6 11.0009V17.0009C6 17.5532 6.44772 18.0009 7 18.0009C7.55228 18.0009 8 17.5532 8 17.0009V11.0009C8 10.4486 7.55228 10.0009 7 10.0009Z" fill="#777E91"/>
<path id="Vector_4" d="M14 12.0009C12.8954 12.0009 12 12.8963 12 14.0009V17.0009C12 17.5532 11.5523 18.0009 11 18.0009C10.4477 18.0009 10 17.5532 10 17.0009V11.0009C10 10.4486 10.4477 10.0009 11 10.0009C11.4054 10.0009 11.7544 10.2421 11.9114 10.5888C12.5193 10.2159 13.2346 10.0009 14 10.0009C16.2091 10.0009 18 11.7918 18 14.0009V17.0009C18 17.5532 17.5523 18.0009 17 18.0009C16.4477 18.0009 16 17.5532 16 17.0009V14.0009C16 12.8963 15.1046 12.0009 14 12.0009Z" fill="#777E91"/>
</g>
</svg>
