<svg width="16" height="16" viewBox="0 0 16 16" fill="none" xmlns="http://www.w3.org/2000/svg">
<g id="icons/Close/Line">
<path id="Shape" fill-rule="evenodd" clip-rule="evenodd" d="M1.29289 1.28899C1.68342 0.898463 2.31658 0.898463 2.70711 1.28899L8 6.58188L13.2929 1.28899C13.6834 0.898463 14.3166 0.898463 14.7071 1.28899C15.0976 1.67951 15.0976 2.31268 14.7071 2.7032L9.41421 7.99609L14.7071 13.289C15.0976 13.6795 15.0976 14.3127 14.7071 14.7032C14.3166 15.0937 13.6834 15.0937 13.2929 14.7032L8 9.41031L2.70711 14.7032C2.31658 15.0937 1.68342 15.0937 1.29289 14.7032C0.902369 14.3127 0.902369 13.6795 1.29289 13.289L6.58579 7.99609L1.29289 2.7032C0.902369 2.31268 0.902369 1.67951 1.29289 1.28899Z" fill="#777E91"/>
</g>
</svg>
