<svg width="20" height="20" viewBox="0 0 20 20" fill="none" xmlns="http://www.w3.org/2000/svg">
<g id="icons/User/Line" clip-path="url(#clip0_1910_11837)">
<path id="Shape" fill-rule="evenodd" clip-rule="evenodd" d="M10 10.8342C6.77834 10.8342 4.16667 13.4459 4.16667 16.6675V18.3342C4.16667 18.7944 3.79357 19.1675 3.33333 19.1675C2.8731 19.1675 2.5 18.7944 2.5 18.3342V16.6675C2.5 12.5254 5.85786 9.16754 10 9.16754C14.1421 9.16754 17.5 12.5254 17.5 16.6675V18.3342C17.5 18.7944 17.1269 19.1675 16.6667 19.1675C16.2064 19.1675 15.8333 18.7944 15.8333 18.3342V16.6675C15.8333 13.4459 13.2217 10.8342 10 10.8342Z" fill="#777E91"/>
<path id="Shape_2" fill-rule="evenodd" clip-rule="evenodd" d="M10 9.1675C11.8409 9.1675 13.3333 7.67512 13.3333 5.83417C13.3333 3.99322 11.8409 2.50083 10 2.50083C8.15905 2.50083 6.66667 3.99322 6.66667 5.83417C6.66667 7.67512 8.15905 9.1675 10 9.1675ZM10 10.8342C12.7614 10.8342 15 8.59559 15 5.83417C15 3.07274 12.7614 0.834167 10 0.834167C7.23858 0.834167 5 3.07274 5 5.83417C5 8.59559 7.23858 10.8342 10 10.8342Z" fill="#777E91"/>
</g>
<defs>
<clipPath id="clip0_1910_11837">
<rect width="20" height="20" fill="white" transform="translate(0 0.000854492)"/>
</clipPath>
</defs>
</svg>
