<svg width="20" height="20" viewBox="0 0 20 20" fill="none" xmlns="http://www.w3.org/2000/svg">
<g id="icons/Video/Line">
<path id="Shape" fill-rule="evenodd" clip-rule="evenodd" d="M9.9987 4.16752C7.93441 4.16752 6.16734 4.31502 4.82646 4.48263C3.74272 4.6181 2.91894 5.42922 2.76622 6.5138C2.61735 7.571 2.4987 8.79595 2.4987 10.0009C2.4987 11.2058 2.61735 12.4307 2.76622 13.4879C2.91894 14.5725 3.74272 15.3836 4.82647 15.5191C6.16734 15.6867 7.93441 15.8342 9.9987 15.8342C12.063 15.8342 13.8301 15.6867 15.1709 15.5191C16.2547 15.3836 17.0785 14.5725 17.2312 13.4879C17.38 12.4307 17.4987 11.2058 17.4987 10.0009C17.4987 8.79595 17.38 7.571 17.2312 6.5138C17.0785 5.42922 16.2547 4.6181 15.1709 4.48263C13.8301 4.31502 12.063 4.16752 9.9987 4.16752ZM4.61974 2.82884C2.78744 3.05787 1.37331 4.45288 1.11583 6.28141C0.960103 7.38733 0.832031 8.69409 0.832031 10.0009C0.832031 11.3076 0.960103 12.6144 1.11583 13.7203C1.37331 15.5488 2.78744 16.9438 4.61974 17.1729C6.01915 17.3478 7.85587 17.5009 9.9987 17.5009C12.1415 17.5009 13.9782 17.3478 15.3777 17.1729C17.21 16.9438 18.6241 15.5488 18.8816 13.7203C19.0373 12.6144 19.1654 11.3076 19.1654 10.0009C19.1654 8.69409 19.0373 7.38733 18.8816 6.2814C18.6241 4.45288 17.21 3.05787 15.3777 2.82884C13.9782 2.65391 12.1415 2.50085 9.9987 2.50085C7.85587 2.50085 6.01915 2.65391 4.61974 2.82884Z" fill="#777E91"/>
<path id="Shape_2" d="M8.77311 6.63105L13.0341 9.29418C13.5563 9.62057 13.5563 10.3811 13.0341 10.7075L8.77311 13.3706C8.21807 13.7175 7.49811 13.3185 7.49811 12.664L7.49811 7.33772C7.49811 6.68319 8.21807 6.28415 8.77311 6.63105Z" fill="#777E91"/>
</g>
</svg>
