<svg width="64" height="64" fill="none" xmlns="http://www.w3.org/2000/svg"><path fill-rule="evenodd" clip-rule="evenodd" d="M31.978 11.123l.022-.011.023.012L43.9 18.249 48 20.72v29.414c0 1.582-.004 2.447-.055 3.069l-.006.07-.07.007c-.622.05-1.487.054-3.069.054H19.2c-1.581 0-2.447-.004-3.069-.054l-.07-.007-.006-.07c-.05-.622-.055-1.487-.055-3.069V20.72l4.086-2.462 11.892-7.135zm-14.64 2.564L3.962 21.713a2.667 2.667 0 002.744 4.573l3.96-2.376v26.223c0 2.987 0 4.48.582 5.622a5.333 5.333 0 002.33 2.33c1.142.582 2.635.582 5.622.582h25.6c2.987 0 4.48 0 5.621-.582a5.333 5.333 0 002.331-2.33c.581-1.141.581-2.635.581-5.622V23.91l3.962 2.377a2.667 2.667 0 102.744-4.574l-13.392-8.035-10.243-6.171a44.007 44.007 0 00-1.8-1.052 5.346 5.346 0 00-.345-.177 4.905 4.905 0 00-1.111-.406 5.333 5.333 0 00-2.296 0c-.36.079-.71.21-1.114.408a5.318 5.318 0 00-.338.173c-.485.26-1.057.604-1.804 1.054l-10.258 6.18z" fill="#141416"/><path fill-rule="evenodd" clip-rule="evenodd" d="M34.667 53.333V42.667a2.667 2.667 0 00-5.334 0v10.666h5.334zM32 34.667a8 8 0 00-8 8v16h16v-16a8 8 0 00-8-8z" fill="#141416"/></svg>