<svg width="20" height="20" viewBox="0 0 20 20" fill="none" xmlns="http://www.w3.org/2000/svg">
<g id="icons/Candlesticks/Line">
<g id="Shape">
<path d="M4.16667 3.33333C4.16667 2.8731 3.79357 2.5 3.33333 2.5C2.8731 2.5 2.5 2.8731 2.5 3.33333V5C2.5 5.46024 2.8731 5.83333 3.33333 5.83333C3.79357 5.83333 4.16667 5.46024 4.16667 5V3.33333Z" fill="#777E91"/>
<path d="M4.16667 10C4.16667 9.53976 3.79357 9.16667 3.33333 9.16667C2.8731 9.16667 2.5 9.53976 2.5 10V15C2.5 15.4602 2.8731 15.8333 3.33333 15.8333C3.79357 15.8333 4.16667 15.4602 4.16667 15V10Z" fill="#777E91"/>
</g>
<path id="Shape_2" fill-rule="evenodd" clip-rule="evenodd" d="M4.16732 8.33329V6.66663C4.16732 6.20639 3.79422 5.83329 3.33398 5.83329C2.87375 5.83329 2.50065 6.20639 2.50065 6.66663V8.33329C2.50065 8.79353 2.87375 9.16663 3.33398 9.16663C3.79422 9.16663 4.16732 8.79353 4.16732 8.33329ZM3.33398 4.16663C1.95327 4.16663 0.833984 5.28591 0.833984 6.66663V8.33329C0.833984 9.714 1.95327 10.8333 3.33398 10.8333C4.7147 10.8333 5.83398 9.714 5.83398 8.33329V6.66663C5.83398 5.28591 4.7147 4.16663 3.33398 4.16663Z" fill="#777E91"/>
<g id="Shape_3">
<path d="M10.8327 6.66671C10.8327 6.20647 10.4596 5.83337 9.99935 5.83337C9.53911 5.83337 9.16602 6.20647 9.16602 6.66671V9.16671C9.16602 9.62694 9.53911 10 9.99935 10C10.4596 10 10.8327 9.62694 10.8327 9.16671V6.66671Z" fill="#777E91"/>
<path d="M10.8327 15C10.8327 14.5398 10.4596 14.1667 9.99935 14.1667C9.53911 14.1667 9.16602 14.5398 9.16602 15V16.6667C9.16602 17.1269 9.53911 17.5 9.99935 17.5C10.4596 17.5 10.8327 17.1269 10.8327 16.6667V15Z" fill="#777E91"/>
</g>
<path id="Shape_4" fill-rule="evenodd" clip-rule="evenodd" d="M10.8333 13.3334V10.8334C10.8333 10.3731 10.4602 10 10 10C9.53976 10 9.16667 10.3731 9.16667 10.8334V13.3334C9.16667 13.7936 9.53976 14.1667 10 14.1667C10.4602 14.1667 10.8333 13.7936 10.8333 13.3334ZM10 8.33337C8.61929 8.33337 7.5 9.45266 7.5 10.8334V13.3334C7.5 14.7141 8.61929 15.8334 10 15.8334C11.3807 15.8334 12.5 14.7141 12.5 13.3334V10.8334C12.5 9.45266 11.3807 8.33337 10 8.33337Z" fill="#777E91"/>
<g id="Shape_5">
<path d="M17.5007 3.33333C17.5007 2.8731 17.1276 2.5 16.6673 2.5C16.2071 2.5 15.834 2.8731 15.834 3.33333V5C15.834 5.46024 16.2071 5.83333 16.6673 5.83333C17.1276 5.83333 17.5007 5.46024 17.5007 5V3.33333Z" fill="#777E91"/>
<path d="M17.5007 12.5C17.5007 12.0398 17.1276 11.6667 16.6673 11.6667C16.2071 11.6667 15.834 12.0398 15.834 12.5V15C15.834 15.4602 16.2071 15.8333 16.6673 15.8333C17.1276 15.8333 17.5007 15.4602 17.5007 15V12.5Z" fill="#777E91"/>
</g>
<path id="Shape_6" fill-rule="evenodd" clip-rule="evenodd" d="M17.4993 10.8333V6.66663C17.4993 6.20639 17.1263 5.83329 16.666 5.83329C16.2058 5.83329 15.8327 6.20639 15.8327 6.66663V10.8333C15.8327 11.2935 16.2058 11.6666 16.666 11.6666C17.1263 11.6666 17.4993 11.2935 17.4993 10.8333ZM16.666 4.16663C15.2853 4.16663 14.166 5.28591 14.166 6.66663V10.8333C14.166 12.214 15.2853 13.3333 16.666 13.3333C18.0467 13.3333 19.166 12.214 19.166 10.8333V6.66663C19.166 5.28591 18.0467 4.16663 16.666 4.16663Z" fill="#777E91"/>
</g>
</svg>
