<svg width="20" height="20" viewBox="0 0 20 20" fill="none" xmlns="http://www.w3.org/2000/svg">
<g id="icons/Check/Filled">
<path id="Exclude" fill-rule="evenodd" clip-rule="evenodd" d="M9.99935 18.3333C14.6017 18.3333 18.3327 14.6023 18.3327 9.99996C18.3327 5.39759 14.6017 1.66663 9.99935 1.66663C5.39698 1.66663 1.66602 5.39759 1.66602 9.99996C1.66602 14.6023 5.39698 18.3333 9.99935 18.3333ZM14.8731 8.20707C15.2636 7.81654 15.2636 7.18338 14.8731 6.79285C14.4826 6.40233 13.8494 6.40233 13.4589 6.79285L9.16602 11.0857L7.37312 9.29285C6.9826 8.90233 6.34943 8.90233 5.95891 9.29285C5.56838 9.68338 5.56838 10.3165 5.95891 10.7071L8.45891 13.2071C8.64644 13.3946 8.9008 13.5 9.16602 13.5C9.43123 13.5 9.68559 13.3946 9.87312 13.2071L14.8731 8.20707Z" fill="#45B36B"/>
</g>
</svg>
