<svg width="20" height="20" viewBox="0 0 20 20" fill="none" xmlns="http://www.w3.org/2000/svg">
<g id="icons/Clock/Line">
<path id="Shape" fill-rule="evenodd" clip-rule="evenodd" d="M9.99935 16.6666C13.6812 16.6666 16.666 13.6819 16.666 9.99996C16.666 6.31806 13.6812 3.33329 9.99935 3.33329C6.31745 3.33329 3.33268 6.31806 3.33268 9.99996C3.33268 13.6819 6.31745 16.6666 9.99935 16.6666ZM9.99935 18.3333C14.6017 18.3333 18.3327 14.6023 18.3327 9.99996C18.3327 5.39759 14.6017 1.66663 9.99935 1.66663C5.39698 1.66663 1.66602 5.39759 1.66602 9.99996C1.66602 14.6023 5.39698 18.3333 9.99935 18.3333Z" fill="#777E91"/>
<path id="Shape_2" fill-rule="evenodd" clip-rule="evenodd" d="M9.99935 5C10.4596 5 10.8327 5.3731 10.8327 5.83333V9.65482L12.6719 11.4941C12.9974 11.8195 12.9974 12.3472 12.6719 12.6726C12.3465 12.998 11.8189 12.998 11.4934 12.6726L9.41009 10.5893C9.25381 10.433 9.16602 10.221 9.16602 10V5.83333C9.16602 5.3731 9.53911 5 9.99935 5Z" fill="#777E91"/>
</g>
</svg>
