<svg width="20" height="20" viewBox="0 0 20 20" fill="none" xmlns="http://www.w3.org/2000/svg">
<g id="icons/Scoreboard/Line">
<path id="Shape" fill-rule="evenodd" clip-rule="evenodd" d="M16.6667 5.00004H3.33333C2.41286 5.00004 1.66667 5.74623 1.66667 6.66671V13.3334C1.66667 14.2538 2.41286 15 3.33333 15H16.6667C17.5871 15 18.3333 14.2538 18.3333 13.3334V6.66671C18.3333 5.74623 17.5871 5.00004 16.6667 5.00004ZM3.33333 3.33337C1.49238 3.33337 0 4.82576 0 6.66671V13.3334C0 15.1743 1.49238 16.6667 3.33333 16.6667H16.6667C18.5076 16.6667 20 15.1743 20 13.3334V6.66671C20 4.82576 18.5076 3.33337 16.6667 3.33337H3.33333Z" fill="#777E91"/>
<path id="Shape_2" fill-rule="evenodd" clip-rule="evenodd" d="M12.5 7.49996C12.5 7.03972 12.8731 6.66663 13.3333 6.66663H15.4167C16.107 6.66663 16.6667 7.22627 16.6667 7.91663V9.58329C16.6667 10.2736 16.107 10.8333 15.4167 10.8333H14.1667V11.6666H15.8333C16.2936 11.6666 16.6667 12.0397 16.6667 12.5C16.6667 12.9602 16.2936 13.3333 15.8333 13.3333H13.75C13.0596 13.3333 12.5 12.7736 12.5 12.0833V10.4166C12.5 9.72627 13.0596 9.16663 13.75 9.16663H15V8.33329H13.3333C12.8731 8.33329 12.5 7.9602 12.5 7.49996Z" fill="#777E91"/>
<g id="Shape_3">
<path d="M9.99935 7.5C9.53911 7.5 9.16602 7.8731 9.16602 8.33333C9.16602 8.79357 9.53911 9.16667 9.99935 9.16667C10.4596 9.16667 10.8327 8.79357 10.8327 8.33333C10.8327 7.8731 10.4596 7.5 9.99935 7.5Z" fill="#777E91"/>
<path d="M9.99935 10.8333C9.53911 10.8333 9.16602 11.2064 9.16602 11.6667C9.16602 12.1269 9.53911 12.5 9.99935 12.5C10.4596 12.5 10.8327 12.1269 10.8327 11.6667C10.8327 11.2064 10.4596 10.8333 9.99935 10.8333Z" fill="#777E91"/>
</g>
<path id="Shape_4" d="M5.83268 6.66663C6.29292 6.66663 6.66602 7.03972 6.66602 7.49996V11.6666C7.12625 11.6666 7.49935 12.0397 7.49935 12.5C7.49935 12.9602 7.12625 13.3333 6.66602 13.3333H4.99935C4.53911 13.3333 4.16602 12.9602 4.16602 12.5C4.16602 12.0397 4.53911 11.6666 4.99935 11.6666V8.33329C4.53911 8.33329 4.16602 7.9602 4.16602 7.49996C4.16602 7.03972 4.53911 6.66663 4.99935 6.66663H5.83268Z" fill="#777E91"/>
</g>
</svg>
